<?xml version="1.0" encoding="UTF-8"?>
<svg width="40px" height="24px" viewBox="0 0 40 24" version="1.1" xmlns="http://www.w3.org/2000/svg" xmlns:xlink="http://www.w3.org/1999/xlink">
    <!-- Generator: sketchtool 54.1 (76490) - https://sketchapp.com -->
    <title>877FA8CB-0FC2-49FF-9EA3-3F298A168C28</title>
    <desc>Created with sketchtool.</desc>
    <g id="pages" stroke="none" stroke-width="1" fill="none" fill-rule="evenodd">
        <g id="tranistion/landing-desktop" transform="translate(-10.000000, -18.000000)" fill="#FFFFFF">
            <g id="Group-2">
                <g id="ic/20/logo/toyota" transform="translate(6.000000, 6.000000)">
                    <path d="M24.0000003,31.0437092 C25.5411666,31.0437092 26.7986631,27.9665522 26.8660149,24.1071831 L26.8731462,24.1094636 C25.945277,24.1915616 24.9841281,24.2356513 24.0000003,24.2356513 C23.0158725,24.2356513 22.0547236,24.1923218 21.1268543,24.1094636 L21.1355704,24.1071831 C21.2013374,27.9673123 22.458834,31.0437092 24.0000003,31.0437092 L24.0000003,31.0437092 Z M24,21.1767391 C24.9175684,21.1767391 25.8089884,21.1387308 26.6615822,21.0665149 L26.6607898,21.067275 C26.2360777,18.4021286 25.2051999,16.5214748 24,16.5214748 C22.7948001,16.5214748 21.7647147,18.4021286 21.3392102,21.067275 L21.3384178,21.0665149 C22.1910116,21.1387308 23.0824316,21.1767391 24,21.1767391 L24,21.1767391 Z M25.2392731,34.770809 C33.8349395,34.3420747 40.6113167,29.4899273 40.6113167,23.5674645 C40.6113167,21.5553018 39.8284518,19.6655261 38.4584382,18.0326869 L38.4417984,18.0007599 C38.3387898,20.7358416 34.2929314,23.0490304 28.6916439,23.8943364 L28.6940211,23.8912957 C28.6979829,24.0706952 28.7003601,24.2500946 28.7003601,24.4325348 C28.7003601,29.3926259 27.2154523,33.5682245 25.2036163,34.7784107 L25.2392731,34.770809 Z M24,13.7316609 C26.0474929,13.7316609 27.7883373,16.7107563 28.4333292,20.8673507 L28.4357064,20.8605092 C32.4181751,20.2668186 35.2073296,18.8947167 35.2073296,17.2976054 C35.2073296,15.1554541 30.1892287,13.4199924 24,13.4199924 C17.8107713,13.4199924 12.7926704,15.1562143 12.7926704,17.2976054 C12.7926704,18.8947167 15.5810325,20.2660584 19.5642936,20.8605092 L19.5666708,20.8673507 C20.2116627,16.7115164 21.9532995,13.7316609 24,13.7316609 L24,13.7316609 Z M4.8,23.9992398 C4.8,17.3736222 13.3956667,12 24,12 C34.6043333,12 43.2,17.3736222 43.2,23.9992398 C43.2,30.6263778 34.6043333,36 24,36 C13.3956667,36 4.8,30.6263778 4.8,23.9992398 L4.8,23.9992398 Z M22.7963842,34.7784107 C20.7829635,33.5682245 19.2996405,29.3926259 19.2996405,24.4325348 C19.2996405,24.2500946 19.3004329,24.0706952 19.3059795,23.8912957 L19.3083566,23.8943364 C13.7078616,23.0490304 9.66121074,20.7358416 9.5582022,18.0007599 L9.54156236,18.0326869 C8.17075642,19.6655261 7.38868389,21.5553018 7.38868389,23.5674645 C7.38868389,29.4899273 14.1642687,34.3420747 22.7599351,34.770809 L22.7963842,34.7784107 Z" id="Fill-1"></path>
                </g>
            </g>
        </g>
    </g>
</svg>